<svg width="16" height="9" viewBox="0 0 16 9" fill="none" xmlns="http://www.w3.org/2000/svg">
<path fill-rule="evenodd" clip-rule="evenodd" d="M3.15877 0.0875788C3.46703 -0.0943195 3.85973 0.0162739 4.03588 0.334596L5.12102 2.29558C6.001 1.89224 6.97515 1.66814 8.00004 1.66814C8.92483 1.66814 9.8083 1.85061 10.6186 2.18258L11.6412 0.334596C11.8173 0.0162739 12.21 -0.0943195 12.5183 0.0875788C12.8265 0.269477 12.9336 0.674986 12.7575 0.993308L11.767 2.78331C13.5817 3.95781 14.8458 5.95586 15.0683 8.27058C15.0862 8.45713 15.0269 8.64282 14.9051 8.78178C14.7832 8.92073 14.6101 9 14.4286 9H1.57145C1.3899 9 1.21682 8.92073 1.09495 8.78178C0.973087 8.64282 0.9138 8.45713 0.931737 8.27057C1.14455 6.05717 2.30965 4.13331 3.99802 2.94221L2.91956 0.993308C2.74341 0.674986 2.85051 0.269477 3.15877 0.0875788ZM5.09284 6.66822C5.44964 6.66822 5.73888 6.36955 5.73888 6.00109C5.73888 5.63263 5.44964 5.33396 5.09284 5.33396C4.73604 5.33396 4.44679 5.63263 4.44679 6.00109C4.44679 6.36955 4.73604 6.66822 5.09284 6.66822ZM11.5533 6.00109C11.5533 6.36955 11.2641 6.66822 10.9073 6.66822C10.5504 6.66822 10.2612 6.36955 10.2612 6.00109C10.2612 5.63263 10.5504 5.33396 10.9073 5.33396C11.2641 5.33396 11.5533 5.63263 11.5533 6.00109Z" fill="white"/>
</svg>
