<svg width="20" height="20" viewBox="0 0 20 20" fill="none" xmlns="http://www.w3.org/2000/svg">
<path fill-rule="evenodd" clip-rule="evenodd" d="M16.2222 9.99729H3.77772C3.77686 9.05779 3.98916 8.13033 4.39863 7.28473C4.80812 6.43914 5.40411 5.69746 6.14172 5.11555L4.72617 2.66399C4.66817 2.56197 4.65287 2.44114 4.68362 2.32788C4.71437 2.21461 4.78867 2.11811 4.89031 2.05943C4.99195 2.00074 5.11267 1.98464 5.22613 2.01464C5.3396 2.04464 5.43659 2.1183 5.49595 2.21955L6.87817 4.61377C7.82674 4.06426 8.90361 3.77495 9.99987 3.77511C11.0961 3.77526 12.1729 4.06488 13.1213 4.61466L14.5039 2.21955C14.5633 2.1183 14.6603 2.04464 14.7738 2.01464C14.8872 1.98464 15.0079 2.00074 15.1096 2.05943C15.2112 2.11811 15.2855 2.21461 15.3163 2.32788C15.347 2.44114 15.3317 2.56197 15.2737 2.66399L13.8582 5.11555C14.5947 5.69846 15.1899 6.44034 15.5993 7.2857C16.0086 8.13108 16.2215 9.05804 16.2222 9.99729ZM13.2592 6.99857C13.1496 6.92532 13.0207 6.88622 12.8889 6.88622C12.712 6.88628 12.5425 6.95654 12.4175 7.08154C12.2924 7.20655 12.2222 7.37609 12.2222 7.55289C12.2222 7.68474 12.2613 7.81363 12.3345 7.92326C12.4078 8.03289 12.5119 8.11834 12.6337 8.1688C12.7555 8.21926 12.8896 8.23246 13.0189 8.20674C13.1482 8.18102 13.267 8.11752 13.3603 8.02429C13.4534 7.93105 13.5169 7.81226 13.5427 7.68294C13.5684 7.55362 13.5552 7.41958 13.5048 7.29776C13.4543 7.17594 13.3689 7.07183 13.2592 6.99857ZM7.48144 6.99857C7.37181 6.92532 7.24292 6.88622 7.11106 6.88622C6.93427 6.88628 6.76473 6.95654 6.63972 7.08154C6.51471 7.20655 6.44445 7.37609 6.44439 7.55289C6.44439 7.68474 6.48349 7.81363 6.55675 7.92326C6.63 8.03289 6.73412 8.11834 6.85594 8.1688C6.97776 8.21926 7.1118 8.23246 7.24112 8.20674C7.37044 8.18102 7.48923 8.11752 7.58247 8.02429C7.6757 7.93105 7.73919 7.81226 7.76492 7.68294C7.79064 7.55362 7.77744 7.41958 7.72698 7.29776C7.67652 7.17594 7.59107 7.07183 7.48144 6.99857ZM2.49831 11.2767C2.74836 11.5268 2.88883 11.866 2.88883 12.2195V16.664C2.88883 17.0176 2.74836 17.3568 2.49831 17.6068C2.24827 17.8569 1.90912 17.9973 1.5555 17.9973C1.20188 17.9973 0.86274 17.8569 0.612692 17.6068C0.362643 17.3568 0.222168 17.0176 0.222168 16.664V12.2195C0.222168 11.866 0.362643 11.5268 0.612692 11.2767C0.86274 11.0267 1.20188 10.8862 1.5555 10.8862C1.90912 10.8862 2.24827 11.0267 2.49831 11.2767ZM3.77772 10.8862H16.2222V17.1085C16.2222 17.2252 16.1992 17.3408 16.1546 17.4486C16.1099 17.5565 16.0444 17.6545 15.9619 17.737C15.8794 17.8196 15.7814 17.885 15.6734 17.9297C15.5656 17.9744 15.45 17.9974 15.3333 17.9973H4.66662C4.54987 17.9974 4.43427 17.9744 4.32641 17.9297C4.21855 17.885 4.12054 17.8196 4.038 17.737C3.95545 17.6545 3.88997 17.5565 3.84532 17.4486C3.80066 17.3408 3.77769 17.2252 3.77772 17.1085V10.8862ZM19.7777 12.2195C19.7777 11.866 19.6373 11.5268 19.3872 11.2767C19.1371 11.0267 18.798 10.8862 18.4444 10.8862C18.0908 10.8862 17.7516 11.0267 17.5016 11.2767C17.2515 11.5268 17.111 11.866 17.111 12.2195V16.664C17.111 17.0176 17.2515 17.3568 17.5016 17.6068C17.7516 17.8569 18.0908 17.9973 18.4444 17.9973C18.798 17.9973 19.1371 17.8569 19.3872 17.6068C19.6373 17.3568 19.7777 17.0176 19.7777 16.664V12.2195Z" fill="#B1C664"/>
</svg>
