<svg width="29" height="28" viewBox="0 0 29 28" fill="none" xmlns="http://www.w3.org/2000/svg">
<path d="M22.7113 18.054C23.4171 19.0524 24.2261 19.698 25.1385 19.9906C24.7426 21.2129 24.1143 22.4867 23.2535 23.8122C21.928 25.8091 20.6197 26.8075 19.3286 26.8075C18.8466 26.8075 18.1322 26.644 17.1855 26.3169C16.3075 25.9898 15.5415 25.8263 14.8873 25.8263C14.2332 25.8263 13.5102 25.9985 12.7183 26.3427C11.892 26.6698 11.2121 26.8334 10.6784 26.8334C9.12912 26.8334 7.60564 25.5165 6.10799 22.8827C4.61034 20.2833 3.86151 17.7269 3.86151 15.2136C3.86151 12.8897 4.42959 10.9875 5.56574 9.50706C6.73632 8.02662 8.18233 7.28641 9.90377 7.28641C10.2825 7.28641 10.7042 7.33375 11.169 7.42842C11.6338 7.5231 12.1158 7.69955 12.615 7.95777C13.1487 8.25041 13.5876 8.45268 13.9319 8.56457C14.2762 8.67647 14.543 8.73241 14.7324 8.73241C14.9562 8.73241 15.3005 8.68077 15.7653 8.57749C16.2301 8.4742 16.6948 8.28484 17.1596 8.00941C17.6589 7.73398 18.0892 7.52741 18.4507 7.38969C18.8122 7.25198 19.1823 7.18312 19.561 7.18312C20.7661 7.18312 21.8506 7.51019 22.8146 8.16434C23.331 8.50863 23.856 9.01645 24.3897 9.68781C23.5978 10.3764 23.0211 10.9789 22.6596 11.4953C21.9883 12.4593 21.6526 13.5094 21.6526 14.6456C21.6526 15.9022 22.0055 17.0384 22.7113 18.054ZM17.5211 5.99533C16.9186 6.5634 16.3678 6.93351 15.8686 7.10565C15.6964 7.1573 15.4769 7.20464 15.2101 7.24767C14.9433 7.29071 14.6377 7.32944 14.2934 7.36387C14.3107 5.849 14.7066 4.54071 15.4812 3.43899C16.2559 2.33727 17.5297 1.57983 19.3028 1.16669C19.3373 1.33883 19.3631 1.45933 19.3803 1.52819V1.81223C19.3803 2.43195 19.234 3.12913 18.9413 3.90378C18.6315 4.66121 18.1581 5.35839 17.5211 5.99533Z" fill="white"/>
</svg>
