<svg width="24" height="24" viewBox="0 0 24 24" fill="none" xmlns="http://www.w3.org/2000/svg">
<path fill-rule="evenodd" clip-rule="evenodd" d="M12.7771 2.80949C13.576 1.83187 14.9469 1.08112 16.1197 1C16.3164 2.33649 15.7732 3.64548 15.0555 4.57085C14.2883 5.56497 12.9641 6.33359 11.6827 6.29371C11.4489 5.0136 12.0484 3.69636 12.7771 2.80949ZM16.5515 6.14934C18.0461 6.14934 19.6287 6.96884 20.7548 8.38095C17.063 10.4173 17.6611 15.722 21.3915 17.1424C20.8786 18.2864 20.6325 18.7965 19.9711 19.8099C19.0485 21.2234 17.7491 22.9847 16.1362 22.9971C15.4733 23.0041 15.0383 22.8034 14.5693 22.5871C14.0258 22.3363 13.4365 22.0644 12.3935 22.0704C11.3563 22.0755 10.7576 22.344 10.2066 22.5911C9.7255 22.8068 9.28078 23.0063 8.61229 22.9998C7.0008 22.9861 5.76881 21.3966 4.84619 19.9831C2.26809 16.0328 1.99584 11.3949 3.5867 8.9282C4.71832 7.17646 6.50306 6.15209 8.17917 6.15209C9.07249 6.15209 9.79245 6.41023 10.4785 6.65623C11.103 6.88013 11.6994 7.09396 12.3729 7.09396C12.9961 7.09396 13.5085 6.89874 14.0674 6.6858C14.7379 6.43033 15.4754 6.14934 16.5515 6.14934Z" fill="white"/>
</svg>
