<svg width="32" height="28" viewBox="0 0 32 28" fill="none" xmlns="http://www.w3.org/2000/svg">
<path d="M0 8C0 3.58172 3.58172 0 8 0H32V16C32 22.6274 26.6274 28 20 28H0V8Z" fill="#D0A944"/>
<path d="M18.7935 7.33301H13.2068C10.7802 7.33301 9.3335 8.77967 9.3335 11.2063V16.7863C9.3335 19.2197 10.7802 20.6663 13.2068 20.6663H18.7868C21.2135 20.6663 22.6602 19.2197 22.6602 16.793V11.2063C22.6668 8.77967 21.2202 7.33301 18.7935 7.33301ZM19.1868 12.4663L15.4068 16.2463C15.3135 16.3397 15.1868 16.393 15.0535 16.393C14.9202 16.393 14.7935 16.3397 14.7002 16.2463L12.8135 14.3597C12.6202 14.1663 12.6202 13.8463 12.8135 13.653C13.0068 13.4597 13.3268 13.4597 13.5202 13.653L15.0535 15.1863L18.4802 11.7597C18.6735 11.5663 18.9935 11.5663 19.1868 11.7597C19.3802 11.953 19.3802 12.2663 19.1868 12.4663Z" fill="white"/>
</svg>
