<svg width="29" height="28" viewBox="0 0 29 28" fill="none" xmlns="http://www.w3.org/2000/svg">
<g clip-path="url(#clip0_2287_491)">
<path d="M28.2271 14.3225C28.2271 13.3708 28.1499 12.414 27.9853 11.4777H14.78V16.8689H22.3421C22.0283 18.6076 21.02 20.1457 19.5436 21.1231V24.6212H24.0551C26.7044 22.1828 28.2271 18.5819 28.2271 14.3225Z" fill="#4285F4"/>
<path d="M14.7798 28.001C18.5557 28.001 21.7399 26.7612 24.06 24.6212L19.5485 21.1231C18.2933 21.9771 16.6729 22.4606 14.7849 22.4606C11.1325 22.4606 8.03572 19.9966 6.92456 16.6837H2.26904V20.2898C4.64567 25.0173 9.48639 28.001 14.7798 28.001Z" fill="#34A853"/>
<path d="M6.91966 16.6837C6.33322 14.9449 6.33322 13.0621 6.91966 11.3234V7.71729H2.26928C0.283612 11.6732 0.283612 16.3339 2.26928 20.2898L6.91966 16.6837Z" fill="#FBBC04"/>
<path d="M14.7798 5.54127C16.7757 5.5104 18.7048 6.26146 20.1504 7.64011L24.1474 3.64305C21.6165 1.26642 18.2573 -0.0402103 14.7798 0.000943444C9.48639 0.000943444 4.64567 2.98459 2.26904 7.71728L6.91942 11.3234C8.02543 8.00535 11.1274 5.54127 14.7798 5.54127Z" fill="#EA4335"/>
</g>
<defs>
<clipPath id="clip0_2287_491">
<rect width="28" height="28" fill="white" transform="translate(0.5)"/>
</clipPath>
</defs>
</svg>
