<svg width="20" height="20" viewBox="0 0 20 20" fill="none" xmlns="http://www.w3.org/2000/svg">
<path fill-rule="evenodd" clip-rule="evenodd" d="M17.618 12.135V17.9022H14.2502V12.5139C14.2502 11.1668 13.7871 10.2406 12.5663 10.2406C11.6402 10.2406 11.0929 10.8721 10.8404 11.4614C10.7562 11.6719 10.7141 11.9666 10.7141 12.2613V17.9022H7.34632C7.34632 17.9022 7.38841 8.76725 7.34632 7.84112H10.7141V9.27241C10.7141 9.27241 10.7141 9.3145 10.672 9.3145H10.7141V9.27241C11.1771 8.59886 11.9349 7.58854 13.745 7.58854C15.9341 7.58854 17.618 9.06193 17.618 12.135ZM3.89436 3C2.75774 3 2 3.75774 2 4.72597C2 5.69418 2.71565 6.45194 3.85226 6.45194H3.89436C5.07308 6.45194 5.78873 5.69419 5.78873 4.72597C5.74663 3.75774 5.03098 3 3.89436 3ZM2.16838 17.9022H5.49405V7.84112H2.16838V17.9022Z" fill="white"/>
</svg>
