<svg width="19" height="18" viewBox="0 0 19 18" fill="none" xmlns="http://www.w3.org/2000/svg">
<g clip-path="url(#clip0_2470_852)">
<path d="M12.9497 1.49805H5.44971C3.37864 1.49805 1.69971 3.17698 1.69971 5.24805V12.748C1.69971 14.8191 3.37864 16.498 5.44971 16.498H12.9497C15.0208 16.498 16.6997 14.8191 16.6997 12.748V5.24805C16.6997 3.17698 15.0208 1.49805 12.9497 1.49805Z" stroke="white" stroke-width="2" stroke-linecap="round" stroke-linejoin="round"/>
<path d="M12.1995 8.52577C12.292 9.14996 12.1854 9.78743 11.8948 10.3475C11.6042 10.9076 11.1443 11.3618 10.5807 11.6455C10.0171 11.9292 9.37832 12.028 8.75533 11.9277C8.13233 11.8275 7.55681 11.5333 7.11062 11.0871C6.66443 10.641 6.37029 10.0654 6.27004 9.44243C6.16979 8.81944 6.26854 8.18069 6.55223 7.61705C6.83593 7.05341 7.29013 6.59358 7.85023 6.30295C8.41032 6.01233 9.0478 5.90571 9.67199 5.99827C10.3087 6.09269 10.8981 6.38937 11.3533 6.8445C11.8084 7.29963 12.1051 7.88908 12.1995 8.52577Z" stroke="white" stroke-width="2" stroke-linecap="round" stroke-linejoin="round"/>
<path d="M13.3247 4.87305H13.3314" stroke="white" stroke-width="2" stroke-linecap="round" stroke-linejoin="round"/>
</g>
<defs>
<clipPath id="clip0_2470_852">
<rect width="18" height="18" fill="white" transform="translate(0.199707 -0.00195312)"/>
</clipPath>
</defs>
</svg>
