<svg width="18" height="19" viewBox="0 0 18 19" fill="none" xmlns="http://www.w3.org/2000/svg">
<path d="M11.9634 2.18132C11.9312 2.03225 11.8399 1.90264 11.7103 1.82219C11.5807 1.74173 11.4241 1.71734 11.2762 1.75459C10.3406 1.99026 9.58263 2.42525 9.1058 3.10045C8.66171 3.72932 8.42993 4.47147 8.39989 5.28907C8.39445 5.43688 8.44744 5.5802 8.54624 5.68861C8.40281 5.62842 8.2477 5.54914 8.06794 5.45493L8.0305 5.43528C7.65049 5.23576 7.14028 4.96786 6.52778 4.96786C5.90756 4.96786 5.04088 5.24272 4.32844 5.94003C3.59985 6.65315 3.06445 7.77483 3.06445 9.40973C3.06445 12.5583 4.83411 14.6078 5.11336 14.9313L5.12799 14.9482L5.16202 14.9883L5.18066 15.0105C5.38703 15.2559 5.97288 15.9528 6.8926 15.9528C7.33586 15.9528 7.77489 15.7891 8.10844 15.6647L8.14842 15.6498C8.54896 15.5009 8.83802 15.4002 9.10397 15.4002C9.38889 15.4002 9.74401 15.5138 10.1983 15.6672L10.2481 15.6841C10.5954 15.8017 11.0414 15.9528 11.4313 15.9528C11.8293 15.9528 12.1523 15.8687 12.4467 15.6901C12.7095 15.5307 12.9261 15.3068 13.1233 15.1031L13.1342 15.0919C13.3936 14.8238 13.7282 14.3338 14.0215 13.8398C14.3188 13.339 14.6119 12.7696 14.7704 12.3192C14.8594 12.0665 14.7578 11.7861 14.5275 11.6491C14.0781 11.3816 13.11 10.7777 13.11 9.40973C13.11 8.43432 13.4583 7.6465 14.1657 7.00626C14.3831 6.80952 14.4129 6.47881 14.2342 6.24637C13.6138 5.43928 12.8332 4.96786 11.9002 4.96786C11.4135 4.96786 10.984 5.10709 10.6193 5.26276C10.7034 5.19446 10.7865 5.12132 10.8686 5.04433L10.8806 5.03267C11.2515 4.66326 11.54 4.24461 11.7273 3.78866L11.7329 3.77451C11.898 3.33951 11.9937 2.91384 11.9937 2.51565V2.37858C11.9937 2.33544 11.9888 2.29244 11.9789 2.25043C11.9736 2.22761 11.9684 2.20454 11.9634 2.18132Z" fill="white"/>
</svg>
