<svg width="24" height="24" viewBox="0 0 24 24" fill="none" xmlns="http://www.w3.org/2000/svg">
<path d="M11.25 7.86011H2V16.1901C2 16.2501 2 16.3101 2.01 16.3601H11.25V7.86011Z" fill="white"/>
<path d="M7.68994 6.36H11.2499V2H7.71994V6.24C7.71994 6.28 7.69994 6.32 7.68994 6.36Z" fill="white"/>
<path d="M6.22 6.23991V2.15991C4 2.61991 2.55 4.09991 2.13 6.35991H6.24C6.23 6.31991 6.22 6.27991 6.22 6.23991Z" fill="white"/>
<path d="M16.22 2H12.75V6.36H16.22V2Z" fill="white"/>
<path d="M17.71 6.3599H21.87C21.45 4.0799 19.98 2.5899 17.72 2.1499V6.3299C17.72 6.3399 17.71 6.3499 17.71 6.3599Z" fill="white"/>
<path d="M17.72 21.8501C19.91 21.4201 21.35 20.0201 21.82 17.8601H17.72V21.8501Z" fill="white"/>
<path d="M16.22 17.8601H12.75V22.0001H16.22V17.8601Z" fill="white"/>
<path d="M12.75 16.3601H21.99C22 16.3101 22 16.2501 22 16.1901V7.86011H12.75V16.3601Z" fill="white"/>
<path d="M11.25 17.8601H7.71997V22.0001H11.25V17.8601Z" fill="white"/>
<path d="M2.18005 17.8601C2.65005 20.0001 4.07005 21.4001 6.22005 21.8401V17.8601H2.18005Z" fill="white"/>
</svg>
