<svg width="18" height="15" viewBox="0 0 18 15" fill="none" xmlns="http://www.w3.org/2000/svg">
<path d="M18 6C18 7.43822 17.6553 8.8555 16.9948 10.1331C16.3344 11.4107 15.3773 12.5114 14.2039 13.343C13.0305 14.1746 11.6748 14.7129 10.2506 14.9127C8.82629 15.1125 7.37487 14.9681 6.01789 14.4916C4.66092 14.015 3.43791 13.2202 2.45133 12.1737C1.46475 11.1272 0.743342 9.85954 0.347534 8.47686C-0.0482743 7.09417 -0.10695 5.63677 0.176422 4.22674C0.459793 2.81671 1.07696 1.49512 1.97622 0.372705L4.08335 2.06089C3.45387 2.84659 3.02186 3.7717 2.8235 4.75872C2.62514 5.74574 2.66621 6.76592 2.94327 7.7338C3.22034 8.70168 3.72533 9.58906 4.41593 10.3216C5.10654 11.0542 5.96264 11.6105 6.91252 11.9441C7.86241 12.2777 8.8784 12.3788 9.87539 12.2389C10.8724 12.099 11.8213 11.7222 12.6427 11.1401C13.4641 10.558 14.1341 9.78748 14.5964 8.89317C15.0587 7.99885 15.3 7.00675 15.3 6H18Z" fill="#D0A944"/>
</svg>
