<svg width="24" height="20" viewBox="0 0 24 20" fill="none" xmlns="http://www.w3.org/2000/svg">
<path d="M0 0H12C18.6274 0 24 5.37258 24 12V20H8C3.58172 20 0 16.4183 0 12V0Z" fill="url(#paint0_linear_2379_1558)"/>
<path d="M0 0H12C18.6274 0 24 5.37258 24 12V20H8C3.58172 20 0 16.4183 0 12V0Z" fill="black" fill-opacity="0.35"/>
<path d="M12.0001 12.6749C12.4502 12.6749 12.8151 12.31 12.8151 11.8599C12.8151 11.4098 12.4502 11.0449 12.0001 11.0449C11.5499 11.0449 11.1851 11.4098 11.1851 11.8599C11.1851 12.31 11.5499 12.6749 12.0001 12.6749Z" fill="white"/>
<path d="M15.14 8.765V8.14C15.14 6.79 14.815 5 12 5C9.185 5 8.86 6.79 8.86 8.14V8.765C7.46 8.94 7 9.65 7 11.395V12.325C7 14.375 7.625 15 9.675 15H14.325C16.375 15 17 14.375 17 12.325V11.395C17 9.65 16.54 8.94 15.14 8.765ZM12 13.37C11.165 13.37 10.49 12.69 10.49 11.86C10.49 11.025 11.17 10.35 12 10.35C12.83 10.35 13.51 11.03 13.51 11.86C13.51 12.695 12.835 13.37 12 13.37ZM9.675 8.72C9.635 8.72 9.6 8.72 9.56 8.72V8.14C9.56 6.675 9.975 5.7 12 5.7C14.025 5.7 14.44 6.675 14.44 8.14V8.725C14.4 8.725 14.365 8.725 14.325 8.725H9.675V8.72Z" fill="white"/>
<defs>
<linearGradient id="paint0_linear_2379_1558" x1="12" y1="0" x2="12" y2="20" gradientUnits="userSpaceOnUse">
<stop stop-color="#F0D89A"/>
<stop offset="1" stop-color="#D0A944"/>
</linearGradient>
</defs>
</svg>
