<svg width="192" height="46" viewBox="0 0 192 46" fill="none" xmlns="http://www.w3.org/2000/svg">
<path fill-rule="evenodd" clip-rule="evenodd" d="M44.9911 18.2204L43.487 6.70837L14.9701 7.14633C12.8601 7.68857 8.64001 9.94927 8.64001 14.6542C8.64001 20.5354 13.7166 22.4749 16.349 22.4749C16.349 20.0348 17.3517 18.5958 19.9841 18.5958H24.3713L27.1916 12.7147L30.388 18.2204H44.9911ZM9.83083 27.6678L11.335 39.1799L39.8518 38.7419C41.9619 38.1997 46.1819 35.939 46.1819 31.2341C46.1819 25.3529 41.1053 23.4134 38.473 23.4134C38.473 25.8534 37.4702 27.2924 34.8379 27.2924H30.4507L27.6303 33.1736L24.434 27.6678H9.83083ZM27.505 17.0317L29.1301 21.4157L33.5217 23.038L29.1301 24.6602L27.505 29.0443L25.8799 24.6602L21.4882 23.038L25.8799 21.4157L27.505 17.0317ZM73.651 26.1096C73.651 27.1377 73.3914 28.1139 72.8721 29.0384C72.3529 29.9541 71.5437 30.6971 70.4445 31.2673C69.3541 31.8375 67.9434 32.1226 66.2125 32.1226C65.3471 32.1226 64.5855 32.0838 63.9277 32.006C63.2786 31.9283 62.6728 31.803 62.1103 31.6302C61.5478 31.4488 60.9636 31.2155 60.3578 30.9304V26.3688C61.3876 26.8871 62.4262 27.2846 63.4734 27.561C64.5206 27.8288 65.4682 27.9628 66.3164 27.9628C66.827 27.9628 67.2424 27.9023 67.5626 27.7813C67.8915 27.6604 68.1338 27.4962 68.2896 27.2889C68.4454 27.0729 68.5233 26.8267 68.5233 26.5502C68.5233 26.2219 68.4064 25.9454 68.1727 25.7208C67.9477 25.4876 67.5842 25.2457 67.0823 24.9951C66.5803 24.7446 65.9183 24.4335 65.0961 24.062C64.3951 23.7338 63.759 23.3968 63.1878 23.0512C62.6252 22.7057 62.1406 22.3126 61.7338 21.872C61.3357 21.4227 61.0285 20.9 60.8121 20.3039C60.5958 19.7078 60.4876 19.0037 60.4876 18.1916C60.4876 16.9734 60.7862 15.9539 61.3833 15.1332C61.9891 14.3038 62.8286 13.6818 63.9018 13.2671C64.9836 12.8524 66.2298 12.645 67.6405 12.645C68.8781 12.645 69.9902 12.7833 70.9768 13.0597C71.9721 13.3362 72.8635 13.6515 73.651 14.0057L72.0802 17.9583C71.2667 17.5868 70.4662 17.2931 69.6786 17.0771C68.8911 16.8524 68.1598 16.7401 67.4847 16.7401C67.0433 16.7401 66.6798 16.7963 66.3943 16.9086C66.1173 17.0123 65.9096 17.1548 65.7711 17.3362C65.6413 17.5177 65.5764 17.725 65.5764 17.9583C65.5764 18.252 65.6889 18.5155 65.9139 18.7488C66.1476 18.9821 66.5327 19.2369 67.0693 19.5134C67.6145 19.7812 68.3545 20.1311 69.2892 20.5631C70.2152 20.9778 71.0028 21.427 71.6518 21.9108C72.3009 22.386 72.7942 22.9605 73.1318 23.6344C73.4779 24.2996 73.651 25.1247 73.651 26.1096ZM103.937 31.8635L103.003 28.3127H96.8363L95.8757 31.8635H90.2416L96.4339 12.8394H103.275L109.545 31.8635H103.937ZM101.938 24.1139L101.12 21.0037C101.034 20.6668 100.908 20.1873 100.744 19.5652C100.579 18.9346 100.415 18.2866 100.25 17.6214C100.095 16.9475 99.9736 16.3946 99.887 15.9626C99.8091 16.3946 99.6966 16.9302 99.5495 17.5695C99.411 18.2002 99.2639 18.8266 99.1081 19.4486C98.961 20.0706 98.8312 20.589 98.7187 21.0037L97.9008 24.1139H101.938ZM122.125 13.5522C120.982 13.1288 119.55 12.9172 117.828 12.9172H111.609V31.8635H116.737V24.9692H118.035L122.06 31.8635H127.876L122.345 23.6085C123.012 23.237 123.583 22.805 124.059 22.3126C124.544 21.8115 124.916 21.2456 125.175 20.6149C125.435 19.9842 125.565 19.2844 125.565 18.5155C125.565 17.2801 125.275 16.2477 124.695 15.4183C124.124 14.5889 123.267 13.9669 122.125 13.5522ZM116.737 16.792H117.75C118.676 16.792 119.347 16.9648 119.762 17.3103C120.177 17.6559 120.385 18.1354 120.385 18.7488C120.385 19.6387 120.134 20.2564 119.632 20.602C119.13 20.9475 118.485 21.1203 117.698 21.1203H116.737V16.792ZM137.975 31.8635H132.848V17.103H128.213V12.9172H142.597V17.103H137.975V31.8635ZM155.462 31.8635H160.589V17.103H165.211V12.9172H150.827V17.103H155.462V31.8635ZM178.102 31.8635L184.32 12.9172H178.582L175.947 22.5717C175.843 22.9346 175.73 23.3968 175.609 23.9584C175.497 24.5113 175.393 25.0642 175.298 25.6172C175.202 26.1701 175.138 26.6236 175.103 26.9779C175.077 26.6236 175.008 26.1658 174.895 25.6042C174.791 25.0426 174.675 24.4811 174.545 23.9195C174.424 23.3493 174.315 22.8828 174.22 22.5199L171.637 12.9172H165.873L172.065 31.8635H178.102ZM79.8303 31.8635H84.9581V17.103H89.5796V12.9172H75.1958V17.103H79.8303V31.8635Z" fill="url(#paint0_linear_2229_3687)"/>
<defs>
<linearGradient id="paint0_linear_2229_3687" x1="17.5605" y1="6.70837" x2="158.776" y2="39.4679" gradientUnits="userSpaceOnUse">
<stop stop-color="#F1DEAD"/>
<stop offset="1" stop-color="#D0A944"/>
</linearGradient>
</defs>
</svg>
