<svg width="192" height="46" viewBox="0 0 192 46" fill="none" xmlns="http://www.w3.org/2000/svg">
<path d="M38.473 23.4133C41.1053 23.4133 46.1818 25.3527 46.182 31.2336C46.182 35.9384 41.962 38.1991 39.8519 38.7415L11.3353 39.1799L9.83043 27.6672H24.4339L27.6302 33.1731L30.4505 27.2922H34.8382C37.4703 27.2921 38.473 25.8532 38.473 23.4133ZM67.641 12.6448C68.8784 12.6448 69.9904 12.7834 70.9769 13.0598C71.9719 13.3362 72.8633 13.651 73.6507 14.0051L72.0804 17.9583C71.267 17.5868 70.4665 17.2924 69.6791 17.0764C68.8915 16.8518 68.1598 16.7395 67.4847 16.7395C67.0434 16.7395 66.6795 16.7962 66.3939 16.9084C66.1172 17.0121 65.9093 17.1549 65.7709 17.3362C65.6412 17.5175 65.5765 17.7252 65.5765 17.9583C65.5766 18.2519 65.6895 18.5151 65.9144 18.7483C66.1481 18.9815 66.5332 19.2365 67.0697 19.5129C67.6149 19.7807 68.3549 20.1308 69.2894 20.5627C70.2153 20.9774 71.0027 21.4267 71.6517 21.9104C72.3008 22.3855 72.7947 22.9602 73.1322 23.634C73.4783 24.2992 73.6507 25.1248 73.6507 26.1096C73.6507 27.1376 73.3916 28.114 72.8724 29.0383C72.3532 29.954 71.5436 30.6967 70.4447 31.2668C69.3542 31.837 67.9431 32.1223 66.2123 32.1223C65.3471 32.1223 64.5857 32.0838 63.9281 32.0061C63.2792 31.9284 62.6731 31.8029 62.1107 31.6301C61.5482 31.4487 60.9636 31.215 60.3578 30.9299V26.3684C61.3875 26.8867 62.4259 27.2843 63.473 27.5608C64.5202 27.8286 65.4686 27.9622 66.3168 27.9622C66.8272 27.9621 67.2427 27.9024 67.5629 27.7815C67.8917 27.6605 68.1337 27.4956 68.2894 27.2883C68.4451 27.0724 68.5228 26.8264 68.5228 26.55C68.5228 26.222 68.4066 25.9455 68.1732 25.7209C67.9482 25.4877 67.5843 25.2449 67.0824 24.9944C66.5804 24.7439 65.9181 24.4332 65.0961 24.0618C64.3951 23.7335 63.759 23.3966 63.1879 23.051C62.6253 22.7055 62.1405 22.3119 61.7337 21.8713C61.3358 21.4222 61.0282 20.8999 60.8119 20.304C60.5956 19.7079 60.4877 19.0036 60.4877 18.1917C60.4877 16.9736 60.7861 15.9537 61.3832 15.1331C61.989 14.3037 62.8286 13.6815 63.9017 13.2668C64.9835 12.8522 66.2303 12.6448 67.641 12.6448ZM89.5795 17.1028H84.9584V31.8635H79.8304V17.1028H75.1957V12.9172H89.5795V17.1028ZM109.545 31.8635H103.937L103.002 28.3127H96.8363L95.8754 31.8635H90.2416L96.4339 12.8391H103.275L109.545 31.8635ZM117.827 12.9172C119.55 12.9172 120.982 13.1287 122.124 13.552C123.267 13.9667 124.123 14.5889 124.695 15.4182C125.274 16.2475 125.565 17.2797 125.565 18.5149C125.565 19.2837 125.435 19.9839 125.175 20.6145C124.916 21.2451 124.544 21.8117 124.059 22.3127C123.583 22.8051 123.011 23.2372 122.345 23.6086L127.875 31.8635H122.06L118.036 24.969H116.738V31.8635H111.61V12.9172H117.827ZM149.75 17.1028H145.129V31.8635H140.001V17.1028H135.367V12.9172H149.75V17.1028ZM158.76 22.5198C158.855 22.8826 158.963 23.3492 159.084 23.9192C159.214 24.4806 159.331 25.0423 159.435 25.6038C159.547 26.1653 159.617 26.6236 159.643 26.9778C159.678 26.6236 159.742 26.1693 159.837 25.6165C159.932 25.0638 160.036 24.5109 160.149 23.9583C160.27 23.3968 160.383 22.9344 160.487 22.5715L163.121 12.9172H168.86L162.642 31.8635H156.605L150.412 12.9172H156.176L158.76 22.5198ZM29.1302 21.4153L33.5218 23.0383L29.1302 24.6604L27.5052 29.0442L25.8802 24.6604L21.4886 23.0383L25.8802 21.4153L27.5052 17.0315L29.1302 21.4153ZM99.8871 15.9622C99.8092 16.3941 99.6963 16.9303 99.5492 17.5696C99.4107 18.2001 99.2635 18.8266 99.1078 19.4485C98.9607 20.0702 98.8316 20.5886 98.7191 21.0032L97.9007 24.1135H101.938L101.12 21.0032C101.034 20.6663 100.908 20.1865 100.744 19.5647C100.579 18.9342 100.415 18.2864 100.25 17.6213C100.095 16.9475 99.9736 16.3941 99.8871 15.9622ZM44.9916 18.22H30.388L27.1918 12.7141L24.3714 18.5959H19.9837C17.3517 18.5961 16.349 20.0349 16.349 22.4749C13.7167 22.4749 8.64027 20.5353 8.64 14.6545C8.64 9.94961 12.86 7.68799 14.9701 7.14575L43.4867 6.70825L44.9916 18.22ZM116.738 21.1204H117.698C118.485 21.1204 119.13 20.9474 119.632 20.6018C120.134 20.2562 120.385 19.6381 120.385 18.7483C120.385 18.1351 120.177 17.6553 119.762 17.3098C119.347 16.9643 118.675 16.7913 117.749 16.7913H116.738V21.1204Z" fill="url(#paint0_linear_3067_2236)"/>
<defs>
<linearGradient id="paint0_linear_3067_2236" x1="16.7755" y1="6.70825" x2="146.68" y2="34.1917" gradientUnits="userSpaceOnUse">
<stop stop-color="#F1DEAD"/>
<stop offset="1" stop-color="#D0A944"/>
</linearGradient>
</defs>
</svg>
