<svg width="143" height="143" viewBox="0 0 143 143" fill="none" xmlns="http://www.w3.org/2000/svg">
<path d="M0 40.5301C0 18.1459 18.1459 0 40.5301 0H101.623C124.007 0 142.153 18.1459 142.153 40.5301V101.623C142.153 124.007 124.007 142.153 101.623 142.153H40.5301C18.1459 142.153 0 124.007 0 101.623V40.5301Z" fill="url(#paint0_linear_2229_4471)"/>
<path fill-rule="evenodd" clip-rule="evenodd" d="M109.372 32.4836L112.948 59.901H78.2289L70.6295 46.7884L63.9242 60.7951H53.4937C47.2354 60.7951 44.8512 64.2223 44.8512 70.0335C38.5929 70.0335 26.5233 65.4143 26.5233 51.4076C26.5233 40.2022 36.5565 34.8181 41.5731 33.5267L109.372 32.4836ZM32.9307 109.819L29.3545 82.4012H64.0732L71.6726 95.5138L78.378 81.5071H88.8085C95.0668 81.5071 97.4509 78.08 97.4509 72.2687C103.709 72.2687 115.779 76.8879 115.779 90.8946C115.779 102.1 105.746 107.484 100.729 108.776L32.9307 109.819ZM75.2382 67.5111L71.3746 57.0699L67.511 67.5111L57.0699 71.3746L67.511 75.2382L71.3746 85.6794L75.2382 75.2382L85.6793 71.3746L75.2382 67.5111Z" fill="url(#paint1_linear_2229_4471)"/>
<defs>
<linearGradient id="paint0_linear_2229_4471" x1="71.0766" y1="0" x2="107.285" y2="126.954" gradientUnits="userSpaceOnUse">
<stop stop-color="#5D5D5D"/>
<stop offset="1"/>
</linearGradient>
<linearGradient id="paint1_linear_2229_4471" x1="31.0554" y1="32.4836" x2="106.478" y2="36.2161" gradientUnits="userSpaceOnUse">
<stop stop-color="#F1DEAD"/>
<stop offset="1" stop-color="#D0A944"/>
</linearGradient>
</defs>
</svg>
