<svg width="59" height="17" viewBox="0 0 59 17" fill="none" xmlns="http://www.w3.org/2000/svg">
<path fill-rule="evenodd" clip-rule="evenodd" d="M7.73314 0.654297H3.20181C2.89172 0.654297 2.628 0.879636 2.57964 1.18561L0.746941 12.804C0.710514 13.0333 0.88808 13.2399 1.12065 13.2399H3.28395C3.59404 13.2399 3.85776 13.0146 3.90612 12.708L4.40042 9.57439C4.4481 9.2675 4.71247 9.04247 5.02191 9.04247H6.45637C9.44132 9.04247 11.1639 7.59814 11.614 4.73617C11.8167 3.48408 11.6226 2.50024 11.0361 1.81104C10.3922 1.0547 9.24968 0.654297 7.73314 0.654297ZM8.25593 4.89774C8.00818 6.52356 6.76581 6.52356 5.56457 6.52356H4.88077L5.36048 3.48714C5.38896 3.30381 5.54798 3.1686 5.73351 3.1686H6.04691C6.86519 3.1686 7.63717 3.1686 8.03608 3.63492C8.27371 3.9133 8.34669 4.32657 8.25593 4.89774ZM21.2784 4.84562H19.1085C18.9236 4.84562 18.7638 4.98083 18.7353 5.16447L18.6393 5.77121L18.4876 5.55138C18.0178 4.86954 16.9704 4.64174 15.9248 4.64174C13.5267 4.64174 11.4788 6.45765 11.0799 9.00507C10.8726 10.2756 11.1673 11.4906 11.8882 12.338C12.5495 13.117 13.4958 13.4417 14.6214 13.4417C16.5534 13.4417 17.625 12.1994 17.625 12.1994L17.5281 12.8024C17.4916 13.033 17.6692 13.2396 17.9004 13.2396H19.8551C20.166 13.2396 20.4282 13.0143 20.4772 12.7077L21.65 5.28159C21.6871 5.05318 21.5102 4.84562 21.2784 4.84562ZM18.2536 9.06853C18.0442 10.308 17.0602 11.1401 15.8055 11.1401C15.1754 11.1401 14.6717 10.9381 14.3485 10.5552C14.0278 10.175 13.9057 9.63357 14.0078 9.03082C14.2034 7.80172 15.204 6.94267 16.4396 6.94267C17.0556 6.94267 17.5567 7.14716 17.8866 7.53345C18.2171 7.92374 18.3483 8.46823 18.2536 9.06853ZM30.6546 4.84532H32.8353C33.1406 4.84532 33.3188 5.18777 33.1452 5.43825L25.8927 15.9057C25.7753 16.0752 25.5818 16.1761 25.3752 16.1761H23.1972C22.8906 16.1761 22.7116 15.8309 22.8891 15.5798L25.1474 12.3925L22.7456 5.34474C22.6625 5.09978 22.8434 4.84532 23.104 4.84532H25.2467C25.5251 4.84532 25.7707 5.02804 25.851 5.29446L27.1257 9.55109L30.1333 5.12155C30.2511 4.94864 30.4467 4.84532 30.6546 4.84532Z" fill="white"/>
<path fill-rule="evenodd" clip-rule="evenodd" d="M54.2978 12.8026L56.1574 0.971807C56.186 0.788162 56.3451 0.652957 56.53 0.652344H58.6236C58.8548 0.652344 59.0323 0.859595 58.9958 1.08892L57.1619 12.7067C57.1141 13.0132 56.8504 13.2386 56.5398 13.2386H54.67C54.4388 13.2386 54.2613 13.0319 54.2978 12.8026ZM40.0556 0.652958H35.5234C35.214 0.652958 34.9503 0.878297 34.9019 1.18427L33.0692 12.8026C33.0327 13.0319 33.2103 13.2386 33.4418 13.2386H35.7672C35.9833 13.2386 36.1682 13.081 36.202 12.8664L36.722 9.57305C36.7698 9.26616 37.0341 9.04113 37.3435 9.04113H38.7773C41.7628 9.04113 43.4851 7.5968 43.9355 4.73483C44.1388 3.48274 43.9435 2.4989 43.3573 1.8097C42.7137 1.05336 41.5721 0.652958 40.0556 0.652958ZM40.5784 4.8964C40.3312 6.52222 39.0888 6.52222 37.8868 6.52222H37.2037L37.6842 3.4858C37.7127 3.30247 37.8703 3.16726 38.0564 3.16726H38.3698C39.1875 3.16726 39.9602 3.16726 40.3588 3.63358C40.5968 3.91196 40.6691 4.32523 40.5784 4.8964ZM53.5996 4.84428H51.4312C51.2448 4.84428 51.0866 4.97949 51.0587 5.16313L50.9627 5.76987L50.8103 5.55004C50.3405 4.8682 49.2937 4.6404 48.2482 4.6404C45.8501 4.6404 43.8028 6.45631 43.4039 9.00373C43.1972 10.2742 43.4906 11.4892 44.2115 12.3366C44.8741 13.1156 45.8191 13.4403 46.9447 13.4403C48.8767 13.4403 49.9481 12.198 49.9481 12.198L49.8515 12.8011C49.815 13.0316 49.9925 13.2383 50.2253 13.2383H52.179C52.4884 13.2383 52.7521 13.0129 52.8006 12.7064L53.974 5.28025C54.0099 5.05184 53.8323 4.84428 53.5996 4.84428ZM50.5751 9.06718C50.3669 10.3067 49.3817 11.1388 48.1267 11.1388C47.4979 11.1388 46.9932 10.9367 46.6697 10.5538C46.349 10.1737 46.2285 9.63223 46.3293 9.02948C46.5259 7.80038 47.5252 6.94133 48.7608 6.94133C49.3771 6.94133 49.8779 7.14582 50.2081 7.53211C50.5399 7.9224 50.6711 8.46689 50.5751 9.06718Z" fill="white"/>
</svg>
