<svg width="18" height="21" viewBox="0 0 18 21" fill="none" xmlns="http://www.w3.org/2000/svg">
<path d="M5.05654 20.2878L5.42055 17.9762L4.60979 17.9573H0.738281L3.42881 0.899383C3.43702 0.847882 3.46426 0.799867 3.50393 0.765774C3.5436 0.73168 3.59448 0.712891 3.64737 0.712891H10.1753C12.3426 0.712891 13.8381 1.16382 14.619 2.05383C14.985 2.47136 15.2182 2.90767 15.331 3.38782C15.4492 3.89165 15.4514 4.49357 15.3358 5.22772L15.3274 5.2813V5.7517L15.6936 5.95909C16.0019 6.1226 16.2468 6.3098 16.4347 6.52413C16.748 6.88111 16.9505 7.33482 17.0361 7.87272C17.1244 8.42595 17.0952 9.08424 16.9505 9.82953C16.7835 10.6869 16.5134 11.4335 16.1488 12.0445C15.8132 12.6075 15.3859 13.0743 14.8787 13.4363C14.3942 13.78 13.8187 14.041 13.168 14.2081C12.5373 14.3721 11.8185 14.4551 11.03 14.4551H10.5219C10.1587 14.4551 9.80573 14.5859 9.52886 14.8204C9.25119 15.0598 9.06729 15.3867 9.01099 15.7445L8.97273 15.9526L8.32965 20.0268L8.3004 20.1764C8.29278 20.2239 8.27956 20.2475 8.26013 20.2635C8.2427 20.278 8.21765 20.2878 8.19321 20.2878H5.05654Z" fill="#253B80"/>
<path d="M16.0383 5.33594C16.0188 5.46049 15.9966 5.58783 15.9715 5.71866C15.1105 10.1382 12.1653 11.6649 8.40361 11.6649H6.48839C6.02842 11.6649 5.64077 11.9989 5.56905 12.4526L4.5884 18.671L4.31073 20.4336C4.26405 20.7314 4.49384 21.0001 4.79434 21.0001H8.19145C8.59373 21.0001 8.93531 20.7078 8.99861 20.3112L9.03207 20.1385L9.67174 16.0802L9.71281 15.8576C9.77532 15.4596 10.1177 15.1673 10.52 15.1673H11.028C14.3192 15.1673 16.8957 13.8312 17.6488 9.96489C17.9633 8.34976 17.8004 7.00117 16.968 6.05268C16.7162 5.76667 16.4037 5.52938 16.0383 5.33594Z" fill="#B0BCD8"/>
<path d="M15.137 4.97596C15.0056 4.93768 14.8698 4.90288 14.7306 4.87157C14.5907 4.84096 14.4473 4.81382 14.2998 4.79017C13.7834 4.70665 13.2176 4.66699 12.6114 4.66699H7.4948C7.36879 4.66699 7.24918 4.69552 7.142 4.74702C6.90601 4.86043 6.73071 5.08383 6.68824 5.35729L5.59961 12.2506L5.56836 12.4517C5.64008 11.998 6.02773 11.664 6.48771 11.664H8.40293C12.1646 11.664 15.11 10.1366 15.9709 5.71776C15.9965 5.58693 16.0181 5.45959 16.0376 5.33504C15.8198 5.21952 15.5838 5.1207 15.3298 5.03649C15.2673 5.01562 15.2026 4.99545 15.137 4.97596Z" fill="#E7EBF3"/>
<path d="M6.69081 5.35753C6.73329 5.08404 6.90878 4.86067 7.14458 4.74794C7.25256 4.69644 7.37156 4.66791 7.49737 4.66791H12.6142C13.2204 4.66791 13.7861 4.70757 14.3024 4.79108C14.4501 4.81474 14.5935 4.84188 14.7333 4.87249C14.8726 4.90382 15.0082 4.93861 15.1398 4.97687C15.2051 4.99636 15.2698 5.01654 15.3331 5.03673C15.5872 5.12092 15.8232 5.22044 16.0409 5.33526C16.2972 3.70204 16.0389 2.59004 15.1558 1.5831C14.1822 0.474583 12.4249 0 10.1763 0H3.6481C3.18873 0 2.79707 0.334003 2.72595 0.788415L0.00697685 18.0217C-0.0467134 18.3627 0.216329 18.6703 0.560107 18.6703H4.59048L5.60239 12.2508L6.69081 5.35753Z" fill="white"/>
</svg>
