<svg width="29" height="24" viewBox="0 0 29 24" fill="none" xmlns="http://www.w3.org/2000/svg">
<path fill-rule="evenodd" clip-rule="evenodd" d="M5.64743 16.8491L4.1001 22.498L9.88106 20.9823C11.4738 21.8509 13.2672 22.3083 15.0923 22.3092H15.0969C21.107 22.3092 25.9993 17.4183 26.002 11.4078C26.0065 9.97499 25.7267 8.55557 25.1789 7.23166C24.6311 5.90774 23.8262 4.70564 22.8106 3.69492C20.7518 1.63471 18.0142 0.499422 15.0969 0.498047C9.08631 0.498047 4.19406 5.388 4.19176 11.399C4.18937 13.3121 4.69147 15.192 5.64743 16.8491ZM11.8208 6.37475C11.9795 6.37403 12.1773 6.37314 12.3722 6.84141V6.84187C12.4494 7.02705 12.5632 7.30391 12.6825 7.59416C12.9146 8.15879 13.1675 8.77413 13.2123 8.86404C13.2806 9.00062 13.326 9.15966 13.2353 9.34162C13.2216 9.36886 13.209 9.39457 13.197 9.41914C13.1288 9.55827 13.0786 9.66072 12.9625 9.79629C12.9169 9.84945 12.8697 9.90684 12.8225 9.96424C12.729 10.0781 12.6354 10.1919 12.5537 10.273C12.4176 10.4091 12.2755 10.5562 12.4345 10.8289C12.5936 11.1016 13.1404 11.994 13.9507 12.7163C14.8209 13.4922 15.5773 13.8205 15.961 13.9871C16.0361 14.0197 16.0969 14.0461 16.1415 14.0684C16.4138 14.2045 16.5728 14.1816 16.7319 13.9997C16.8909 13.8182 17.413 13.2045 17.5945 12.9317C17.7764 12.659 17.9579 12.7044 18.2077 12.7956C18.4575 12.8864 19.7972 13.5455 20.0695 13.6816C20.1227 13.7083 20.1725 13.7323 20.2187 13.7546C20.4088 13.8466 20.537 13.9086 20.592 13.9997C20.6598 14.1133 20.6598 14.6587 20.4329 15.2954C20.2056 15.9315 19.117 16.5122 18.5936 16.5906C18.1243 16.6607 17.5303 16.6896 16.8776 16.4825C16.4816 16.3569 15.9743 16.1891 15.3243 15.9086C12.7688 14.8057 11.0421 12.329 10.7169 11.8626C10.6942 11.8301 10.6784 11.8074 10.6695 11.7955L10.6676 11.793C10.5244 11.6021 9.55713 10.3126 9.55713 8.9777C9.55713 7.72268 10.1737 7.06494 10.4574 6.76233C10.4767 6.74169 10.4945 6.7227 10.5105 6.70529C10.7603 6.43258 11.055 6.36475 11.2369 6.36475C11.4189 6.36475 11.6004 6.36612 11.7594 6.37391C11.7791 6.37494 11.7996 6.37485 11.8208 6.37475Z" fill="white"/>
</svg>
