<svg width="21" height="20" viewBox="0 0 21 20" fill="none" xmlns="http://www.w3.org/2000/svg">
<path d="M11.7753 4.93872L12.9286 7.24537C13.0859 7.56647 13.5053 7.87446 13.8592 7.93343L15.9496 8.28074C17.2864 8.50354 17.6009 9.47339 16.6376 10.4301L15.0125 12.0553C14.7373 12.3305 14.5865 12.8613 14.6717 13.2414L15.137 15.2531C15.504 16.8455 14.6586 17.4615 13.2497 16.6293L11.2904 15.4694C10.9365 15.2597 10.3533 15.2597 9.9929 15.4694L8.03356 16.6293C6.63122 17.4615 5.77933 16.8389 6.1463 15.2531L6.61156 13.2414C6.69675 12.8613 6.54603 12.3305 6.2708 12.0553L4.64566 10.4301C3.68892 9.47339 3.99691 8.50354 5.33372 8.28074L7.42413 7.93343C7.77144 7.87446 8.19083 7.56647 8.3481 7.24537L9.50143 4.93872C10.1305 3.68709 11.1528 3.68709 11.7753 4.93872Z" fill="white" stroke="white" stroke-width="1.5" stroke-linecap="round" stroke-linejoin="round"/>
</svg>
