<svg width="20" height="20" viewBox="0 0 20 20" fill="none" xmlns="http://www.w3.org/2000/svg">
<path d="M16.8571 8.579C15.5269 8.579 14.1975 8.173 13.1171 7.36V12.883C13.1171 15.645 10.9561 18 8.12898 18C5.30383 18 3.14285 15.726 3.14285 12.883C3.14285 10.041 5.30383 7.766 8.12898 7.766C8.37877 7.766 8.71183 7.766 8.96163 7.848V10.772C8.71183 10.69 8.46204 10.609 8.12898 10.609C6.88293 10.609 5.96898 11.665 5.96898 12.802C5.96898 14.102 6.9662 14.995 8.12995 14.995C9.29371 14.995 10.2909 13.939 10.2909 12.802V2H13.0338C13.0338 4.112 14.6962 5.817 16.6906 5.817L16.8571 8.58" fill="white"/>
</svg>
