<svg width="192" height="192" viewBox="0 0 192 192" fill="none" xmlns="http://www.w3.org/2000/svg">
<rect width="192" height="192" fill="url(#paint0_linear_3053_2265)"/>
<path d="M131.623 97.6104C140.075 97.6105 156.377 103.85 156.377 122.768C156.377 137.902 142.826 145.174 136.05 146.918L44.478 148.327L39.647 111.296H86.5405L96.8042 129.007L105.861 110.088H119.95C128.402 110.088 131.623 105.459 131.623 97.6104ZM101.621 91.1846L115.723 96.4023L101.621 101.621L96.4019 115.724L91.1841 101.621L77.0815 96.4023L91.1841 91.1846L96.4019 77.082L101.621 91.1846ZM152.553 80.9053H105.661L95.396 63.1943L86.3394 82.1133H72.2515C63.7987 82.1133 60.5787 86.7419 60.5786 94.5908C52.1258 94.5908 35.8237 88.3518 35.8237 69.4336C35.8238 54.2991 49.3752 47.0274 56.1509 45.2832L147.723 43.874L152.553 80.9053Z" fill="url(#paint1_linear_3053_2265)"/>
<defs>
<linearGradient id="paint0_linear_3053_2265" x1="96" y1="0" x2="144.906" y2="171.472" gradientUnits="userSpaceOnUse">
<stop stop-color="#5D5D5D"/>
<stop offset="1"/>
</linearGradient>
<linearGradient id="paint1_linear_3053_2265" x1="41.9451" y1="43.874" x2="143.815" y2="48.9153" gradientUnits="userSpaceOnUse">
<stop stop-color="#F1DEAD"/>
<stop offset="1" stop-color="#D0A944"/>
</linearGradient>
</defs>
</svg>
