<svg width="34" height="33" viewBox="0 0 34 33" fill="none" xmlns="http://www.w3.org/2000/svg">
<path d="M25.4391 30.5867C25.2356 30.7111 25.0291 30.8313 24.8199 30.9458C24.7492 30.9854 24.6771 31.0235 24.6065 31.0603C24.4439 31.1465 24.2813 31.2299 24.1173 31.3119C16.2617 35.1698 6.67989 32.2082 2.40924 24.4627C-1.66351 17.0736 0.524826 7.92156 7.20859 3.11513C7.74154 2.73203 8.30278 2.37581 8.89228 2.05208C9.10432 1.93616 9.31638 1.82305 9.53125 1.71844C9.73906 1.61524 9.94969 1.51629 10.1603 1.42299C10.8064 1.13461 11.4623 0.892866 12.1253 0.69354C13.1106 0.396673 14.1101 0.197363 15.1124 0.0913387C18.2196 -0.238043 21.3466 0.330233 24.1188 1.68593C27.0606 3.12362 29.6038 5.4505 31.3044 8.5351C35.5863 16.3046 32.9485 26.0206 25.4405 30.5867H25.4391Z" fill="#C2C2C8"/>
<path d="M16.9633 31.7009C11.4812 31.7009 6.43161 28.721 3.78808 23.9244C1.84995 20.4087 1.39758 16.3486 2.51296 12.4922C3.62833 8.63573 6.17857 5.4451 9.69433 3.50698C11.9138 2.28417 14.4188 1.63672 16.9379 1.63672C22.4201 1.63672 27.4696 4.61671 30.1132 9.41324C32.0513 12.929 32.5037 16.989 31.3883 20.8455C30.2729 24.7019 27.7227 27.8925 24.2069 29.8307C21.9875 31.0535 19.4825 31.7009 16.9633 31.7009ZM16.9379 2.53156C14.57 2.53156 12.2149 3.13944 10.1283 4.29015C6.82179 6.11236 4.42423 9.11355 3.3753 12.7396C2.32637 16.3656 2.75187 20.1839 4.57408 23.4904C7.0607 28.0014 11.8077 30.8033 16.9648 30.8033C19.3326 30.8033 21.6878 30.1954 23.7744 29.0447C27.0809 27.2225 29.4785 24.2213 30.5274 20.5953C31.5763 16.9692 31.1508 13.151 29.3286 9.84441C26.842 5.33344 22.0949 2.53156 16.9379 2.53156Z" fill="#88888C"/>
<path d="M16.9505 5.60449L20.2641 12.3208L27.6759 13.398L22.3125 18.6257L23.5791 26.0078L16.9505 22.5217L10.3204 26.0078L11.5871 18.6257L6.22363 13.398L13.6355 12.3208L16.9505 5.60449Z" fill="#88888C"/>
</svg>
