<svg width="34" height="33" viewBox="0 0 34 33" fill="none" xmlns="http://www.w3.org/2000/svg">
<path d="M25.8678 30.5867C25.6643 30.7111 25.4579 30.8313 25.2486 30.9458C25.1779 30.9854 25.1059 31.0235 25.0352 31.0603C24.8726 31.1465 24.71 31.2299 24.5461 31.3119C16.6904 35.1698 7.1086 32.2082 2.83795 24.4627C-1.23479 17.0736 0.953537 7.92156 7.6373 3.11513C8.17025 2.73203 8.73149 2.37581 9.32099 2.05208C9.53303 1.93616 9.74509 1.82305 9.95996 1.71844C10.1678 1.61524 10.3784 1.51629 10.589 1.42299C11.2351 1.13461 11.891 0.892866 12.554 0.69354C13.5393 0.396673 14.5388 0.197363 15.5411 0.0913387C18.6483 -0.238043 21.7753 0.330233 24.5475 1.68593C27.4893 3.12362 30.0325 5.4505 31.7331 8.5351C36.0151 16.3046 33.3772 26.0206 25.8692 30.5867H25.8678Z" fill="#FFC93E"/>
<path d="M17.392 31.7009C11.9099 31.7009 6.86032 28.721 4.21679 23.9244C2.27867 20.4087 1.82629 16.3486 2.94167 12.4922C4.05704 8.63573 6.60728 5.4451 10.123 3.50698C12.3425 2.28417 14.8475 1.63672 17.3666 1.63672C22.8488 1.63672 27.8983 4.61671 30.5419 9.41324C32.48 12.929 32.9324 16.989 31.817 20.8455C30.7016 24.7019 28.1514 27.8925 24.6357 29.8307C22.4162 31.0535 19.9112 31.7009 17.392 31.7009ZM17.3666 2.53156C14.9987 2.53156 12.6436 3.13944 10.557 4.29015C7.25051 6.11236 4.85294 9.11355 3.80401 12.7396C2.75508 16.3656 3.18059 20.1839 5.00279 23.4904C7.48941 28.0014 12.2364 30.8033 17.3935 30.8033C19.7613 30.8033 22.1165 30.1954 24.2031 29.0447C27.5096 27.2225 29.9072 24.2213 30.9561 20.5953C32.005 16.9692 31.5795 13.151 29.7573 9.84441C27.2707 5.33344 22.5236 2.53156 17.3666 2.53156Z" fill="#FFA412"/>
<path d="M17.3792 5.60449L20.6928 12.3208L28.1046 13.398L22.7412 18.6257L24.0078 26.0078L17.3792 22.5217L10.7491 26.0078L12.0158 18.6257L6.65234 13.398L14.0642 12.3208L17.3792 5.60449Z" fill="#FFA412"/>
</svg>
