<svg width="18" height="17" viewBox="0 0 18 17" fill="none" xmlns="http://www.w3.org/2000/svg">
<path d="M12.493 0.164062H5.50964C2.4763 0.164062 0.667969 1.9724 0.667969 5.00573V11.9807C0.667969 15.0224 2.4763 16.8307 5.50964 16.8307H12.4846C15.518 16.8307 17.3263 15.0224 17.3263 11.9891V5.00573C17.3346 1.9724 15.5263 0.164062 12.493 0.164062ZM12.9846 6.58073L8.25963 11.3057C8.14297 11.4224 7.98464 11.4891 7.81797 11.4891C7.6513 11.4891 7.49297 11.4224 7.3763 11.3057L5.01797 8.9474C4.7763 8.70573 4.7763 8.30573 5.01797 8.06406C5.25963 7.8224 5.65964 7.8224 5.9013 8.06406L7.81797 9.98073L12.1013 5.6974C12.343 5.45573 12.743 5.45573 12.9846 5.6974C13.2263 5.93906 13.2263 6.33073 12.9846 6.58073Z" fill="#88888C"/>
</svg>
